<svg width="24" height="24" viewBox="0 0 24 24" fill="none" xmlns="http://www.w3.org/2000/svg">
<g id="Group">
<g id="Group_2">
<path id="Path" d="M4.718 15.979C3.658 14.919 3 13.457 3 11.849V11.849C3 8.632 5.632 6 8.849 6L12.1 6.021" stroke="#13828A" stroke-width="1.5" stroke-linecap="round" stroke-linejoin="round"/>
<path id="Path_2" d="M16.167 6.167L17 5.333V8.667" stroke="#13828A" stroke-width="1.5" stroke-linecap="round" stroke-linejoin="round"/>
<path id="Path_3" d="M16.17 8.67H17.83" stroke="#13828A" stroke-width="1.5" stroke-linecap="round" stroke-linejoin="round"/>
<path id="Path_4" d="M20.71 10.346C20.896 10.916 21 11.522 21 12.151C21 15.368 18.368 18 15.151 18L8 17.979" stroke="#13828A" stroke-width="1.5" stroke-linecap="round" stroke-linejoin="round"/>
<path id="Path_5" d="M10 15.979L8 17.979L10 19.979" stroke="#13828A" stroke-width="1.5" stroke-linecap="round" stroke-linejoin="round"/>
<path id="Path_6" d="M17 12C14.239 12 12 9.761 12 7C12 4.239 14.239 2 17 2C19.762 2 22 4.239 22 7C22 9.761 19.762 12 17 12" stroke="#13828A" stroke-width="1.5" stroke-linecap="round" stroke-linejoin="round"/>
</g>
</g>
</svg>
