<svg width="24" height="24" viewBox="0 0 24 24" fill="none" xmlns="http://www.w3.org/2000/svg">
<g id="Group">
<path id="Path" fill-rule="evenodd" clip-rule="evenodd" d="M12 4.77422V19.223C12.0002 19.7626 11.7554 20.2732 11.3344 20.6109C10.9134 20.9486 10.3619 21.0769 9.83514 20.9597L5.38928 19.9713C4.57563 19.7906 3.9967 19.069 3.9967 18.2355V5.76263C3.9967 4.92884 4.5762 4.20708 5.39028 4.0269L9.83614 3.03849C10.3626 2.92143 10.9138 3.04969 11.3345 3.38717C11.7553 3.72464 12 4.23486 12 4.77422Z" stroke="white" stroke-width="1.5" stroke-linecap="round" stroke-linejoin="round"/>
<path id="Path_2" d="M8.99874 13.0204V11.0195" stroke="white" stroke-width="1.5" stroke-linecap="round" stroke-linejoin="round"/>
<path id="Path_3" d="M20.0033 7.99681V5.95396C20.0034 5.42326 19.7927 4.91426 19.4174 4.53899C19.0422 4.16373 18.5332 3.95298 18.0025 3.95313H15.0012" stroke="white" stroke-width="1.5" stroke-linecap="round" stroke-linejoin="round"/>
<path id="Path_4" d="M20.0033 16V18.0008C20.0034 18.5315 19.7927 19.0405 19.4174 19.4158C19.0422 19.7911 18.5332 20.0018 18.0025 20.0017H15.0012" stroke="white" stroke-width="1.5" stroke-linecap="round" stroke-linejoin="round"/>
<path id="Path_5" d="M15.0012 11.9983H20.0033" stroke="white" stroke-width="1.5" stroke-linecap="round" stroke-linejoin="round"/>
<path id="Path_6" d="M18.0024 13.9997L20.0033 11.9989L18.0024 9.99805" stroke="white" stroke-width="1.5" stroke-linecap="round" stroke-linejoin="round"/>
</g>
</svg>
