<svg width="28" height="28" viewBox="0 0 28 28" fill="none" xmlns="http://www.w3.org/2000/svg">
<g id="Group">
<g id="Group_2">
<path id="Path" fill-rule="evenodd" clip-rule="evenodd" d="M21.6204 10.5H6.37902C5.71635 10.5 5.17969 9.96333 5.17969 9.30183V8.19817C5.17969 7.53667 5.71635 7 6.37902 7H21.6215C22.283 7 22.8197 7.53667 22.8197 8.19817V9.30067C22.8197 9.96333 22.283 10.5 21.6204 10.5V10.5Z" stroke="white" stroke-width="1.5" stroke-linecap="round" stroke-linejoin="round"/>
<path id="Path_2" d="M21 10.5L20.0118 22.3603C19.9103 23.5702 18.9 24.5 17.6867 24.5H10.3133C9.1 24.5 8.0885 23.5702 7.98817 22.3603L7 10.5" stroke="white" stroke-width="1.5" stroke-linecap="round" stroke-linejoin="round"/>
<path id="Path_3" d="M9.33398 7L10.762 4.14517C10.9592 3.74967 11.3628 3.5 11.805 3.5H16.1963C16.6385 3.5 17.0422 3.74967 17.2393 4.14517L18.6673 7" stroke="white" stroke-width="1.5" stroke-linecap="round" stroke-linejoin="round"/>
<path id="Path_4" d="M13.9993 14V21" stroke="white" stroke-width="1.5" stroke-linecap="round" stroke-linejoin="round"/>
<path id="Path_5" d="M17.5002 14L17.0219 21" stroke="white" stroke-width="1.5" stroke-linecap="round" stroke-linejoin="round"/>
<path id="Path_6" d="M10.5004 14L10.9788 21" stroke="white" stroke-width="1.5" stroke-linecap="round" stroke-linejoin="round"/>
</g>
</g>
</svg>
