<svg width="48" height="48" viewBox="0 0 48 48" fill="none" xmlns="http://www.w3.org/2000/svg">
<rect width="48" height="48" rx="12" fill="#13828A"/>
<path d="M27.5 34.4993V27.4993C27.5 26.2107 26.4553 25.166 25.1667 25.166H22.8333C21.5447 25.166 20.5 26.2107 20.5 27.4993V34.4993" stroke="white" stroke-width="1.5" stroke-linecap="round" stroke-linejoin="round"/>
<path fill-rule="evenodd" clip-rule="evenodd" d="M13.5 31V22.7863C13.5 21.1915 14.225 19.6831 15.4703 18.6868L20.3559 14.7783C22.4864 13.0739 25.5136 13.0739 27.6441 14.7783L32.5297 18.6868C33.775 19.6831 34.5 21.1915 34.5 22.7863V31C34.5 32.933 32.933 34.5 31 34.5H17C15.067 34.5 13.5 32.933 13.5 31Z" stroke="white" stroke-width="1.5" stroke-linecap="round" stroke-linejoin="round"/>
</svg>
