<svg width="48" height="48" viewBox="0 0 48 48" fill="none" xmlns="http://www.w3.org/2000/svg">
<rect width="48" height="48" rx="6" fill="#13828A"/>
<path d="M27.5722 31.5149C28.2558 32.1985 28.2558 33.3068 27.5722 33.9904C26.8886 34.674 25.7803 34.674 25.0967 33.9904C24.4131 33.3068 24.4131 32.1985 25.0967 31.5149C25.4249 31.1865 25.8701 31.002 26.3344 31.002C26.7987 31.002 27.244 31.1865 27.5722 31.5149" stroke="white" stroke-width="1.5" stroke-linecap="round" stroke-linejoin="round"/>
<path d="M33.9921 30.3489C34.6757 31.0325 34.6757 32.1408 33.9921 32.8244C33.3085 33.508 32.2002 33.508 31.5166 32.8244C30.833 32.1408 30.833 31.0325 31.5166 30.3489C31.8448 30.0205 32.2901 29.8359 32.7544 29.8359C33.2187 29.8359 33.6639 30.0205 33.9921 30.3489" stroke="white" stroke-width="1.5" stroke-linecap="round" stroke-linejoin="round"/>
<path d="M28.084 32.6004V27.3847C28.0837 26.9074 28.3746 26.4781 28.8181 26.3016L32.9032 24.6676C33.2626 24.5237 33.67 24.5675 33.9907 24.7845C34.3113 25.0015 34.5033 25.3635 34.5033 25.7507V31.4109" stroke="white" stroke-width="1.5" stroke-linecap="round" stroke-linejoin="round"/>
<path d="M33.3371 14.6637H14.791" stroke="white" stroke-width="1.5" stroke-linecap="round" stroke-linejoin="round"/>
<path d="M33.3366 19.3316H14.6621" stroke="white" stroke-width="1.5" stroke-linecap="round" stroke-linejoin="round"/>
<path d="M23.9999 23.9996H14.791" stroke="white" stroke-width="1.5" stroke-linecap="round" stroke-linejoin="round"/>
<path d="M20.4988 23.9996H14.7031" stroke="white" stroke-width="1.5" stroke-linecap="round" stroke-linejoin="round"/>
<path d="M20.4979 28.6695H14.6621" stroke="white" stroke-width="1.5" stroke-linecap="round" stroke-linejoin="round"/>
</svg>
