<svg width="64" height="64" viewBox="0 0 64 64" fill="none" xmlns="http://www.w3.org/2000/svg">
<path id="Vector" d="M26.987 44.2472L26.9846 44.2489C26.8245 44.364 26.6357 44.4327 26.439 44.4475C26.2423 44.4623 26.0453 44.4225 25.8698 44.3327C25.6942 44.2428 25.5468 44.1063 25.4438 43.9381C25.3407 43.7699 25.286 43.5766 25.2857 43.3794V43.3786L25.2857 20.6945C25.2857 20.6943 25.2857 20.6941 25.2857 20.6939V20.6929H25.7857L26.987 44.2472ZM26.987 44.2472L42.5816 32.9011L26.987 44.2472ZM0.5 32C0.5 14.6047 14.6047 0.5 32 0.5C49.3953 0.5 63.5 14.6047 63.5 32C63.5 49.3953 49.3953 63.5 32 63.5C14.6047 63.5 0.5 49.3953 0.5 32Z" fill="#13828A" stroke="#13828A"/>
</svg>
