<svg width="28" height="28" viewBox="0 0 28 28" fill="none" xmlns="http://www.w3.org/2000/svg">
<g id="Group">
<path id="Path" d="M17.5722 21.5149C18.2558 22.1985 18.2558 23.3068 17.5722 23.9904C16.8886 24.674 15.7803 24.674 15.0967 23.9904C14.4131 23.3068 14.4131 22.1985 15.0967 21.5149C15.4249 21.1865 15.8701 21.002 16.3344 21.002C16.7987 21.002 17.244 21.1865 17.5722 21.5149" stroke="white" stroke-width="1.5" stroke-linecap="round" stroke-linejoin="round"/>
<path id="Path_2" d="M23.9921 20.3489C24.6757 21.0325 24.6757 22.1408 23.9921 22.8244C23.3085 23.508 22.2002 23.508 21.5166 22.8244C20.833 22.1408 20.833 21.0325 21.5166 20.3489C21.8448 20.0205 22.2901 19.8359 22.7544 19.8359C23.2187 19.8359 23.6639 20.0205 23.9921 20.3489" stroke="white" stroke-width="1.5" stroke-linecap="round" stroke-linejoin="round"/>
<path id="Path_3" d="M18.084 22.6004V17.3847C18.0837 16.9074 18.3746 16.4781 18.8181 16.3016L22.9032 14.6676C23.2626 14.5237 23.67 14.5675 23.9907 14.7845C24.3113 15.0015 24.5033 15.3635 24.5033 15.7507V21.4109" stroke="white" stroke-width="1.5" stroke-linecap="round" stroke-linejoin="round"/>
<path id="Path_4" d="M23.3371 4.66365H4.79102" stroke="white" stroke-width="1.5" stroke-linecap="round" stroke-linejoin="round"/>
<path id="Path_5" d="M23.3366 9.33162H4.66211" stroke="white" stroke-width="1.5" stroke-linecap="round" stroke-linejoin="round"/>
<path id="Path_6" d="M13.9999 13.9996H4.79102" stroke="white" stroke-width="1.5" stroke-linecap="round" stroke-linejoin="round"/>
<path id="Path_7" d="M10.4988 13.9996H4.70312" stroke="white" stroke-width="1.5" stroke-linecap="round" stroke-linejoin="round"/>
<path id="Path_8" d="M10.4979 18.6695H4.66211" stroke="white" stroke-width="1.5" stroke-linecap="round" stroke-linejoin="round"/>
</g>
</svg>
