<svg width="44" height="44" viewBox="0 0 44 44" fill="none" xmlns="http://www.w3.org/2000/svg">
<mask id="path-1-inside-1_35_61067" fill="white">
<path d="M22 0C9.85089 0 0 9.85089 0 22C0 34.1491 9.85089 44 22 44C34.1491 44 44 34.1491 44 22C44 9.85089 34.1491 0 22 0ZM29.0763 22.3388L18.3513 30.142C18.2925 30.1842 18.2232 30.2094 18.151 30.2149C18.0788 30.2203 18.0065 30.2057 17.9421 30.1727C17.8776 30.1397 17.8235 30.0896 17.7857 30.0279C17.7479 29.9661 17.7278 29.8952 17.7277 29.8228V14.2263C17.7274 14.1538 17.7473 14.0826 17.785 14.0206C17.8228 13.9587 17.877 13.9084 17.9415 13.8753C18.0061 13.8423 18.0786 13.8278 18.1509 13.8334C18.2233 13.839 18.2926 13.8645 18.3513 13.9071L29.0763 21.7054C29.127 21.7412 29.1683 21.7887 29.1969 21.8438C29.2254 21.8989 29.2403 21.96 29.2403 22.0221C29.2403 22.0842 29.2254 22.1453 29.1969 22.2004C29.1683 22.2555 29.127 22.303 29.0763 22.3388Z"/>
</mask>
<path d="M18.3513 30.142L18.9349 30.9541L18.9397 30.9506L18.3513 30.142ZM17.7277 29.8228H16.7277L16.7277 29.8244L17.7277 29.8228ZM17.7277 14.2263H18.7277L18.7277 14.2231L17.7277 14.2263ZM18.3513 13.9071L18.9394 13.0983L18.9388 13.0979L18.3513 13.9071ZM29.0763 21.7054L28.4882 22.5142L28.4989 22.5218L29.0763 21.7054ZM29.2403 22.0221H30.2403H29.2403ZM22 -1C9.29861 -1 -1 9.29861 -1 22H1C1 10.4032 10.4032 1 22 1V-1ZM-1 22C-1 34.7014 9.29861 45 22 45V43C10.4032 43 1 33.5968 1 22H-1ZM22 45C34.7014 45 45 34.7014 45 22H43C43 33.5968 33.5968 43 22 43V45ZM45 22C45 9.29861 34.7014 -1 22 -1V1C33.5968 1 43 10.4032 43 22H45ZM28.488 21.5302L17.763 29.3333L18.9397 30.9506L29.6647 23.1475L28.488 21.5302ZM17.7678 29.3299C17.8583 29.2649 17.9649 29.226 18.0761 29.2177L18.226 31.2121C18.4815 31.1928 18.7268 31.1036 18.9349 30.954L17.7678 29.3299ZM18.0761 29.2177C18.1872 29.2093 18.2985 29.2318 18.3977 29.2825L17.4865 31.0629C17.7146 31.1796 17.9704 31.2313 18.226 31.2121L18.0761 29.2177ZM18.3977 29.2825C18.4969 29.3333 18.5802 29.4104 18.6384 29.5055L16.933 30.5503C17.0669 30.7688 17.2584 30.9462 17.4865 31.0629L18.3977 29.2825ZM18.6384 29.5055C18.6966 29.6005 18.7275 29.7097 18.7277 29.8212L16.7277 29.8244C16.7281 30.0806 16.7991 30.3318 16.933 30.5503L18.6384 29.5055ZM18.7277 29.8228V14.2263H16.7277V29.8228H18.7277ZM18.7277 14.2231C18.728 14.3352 18.6974 14.4452 18.639 14.541L16.9311 13.5003C16.7972 13.72 16.7268 13.9724 16.7277 14.2296L18.7277 14.2231ZM18.639 14.541C18.5807 14.6367 18.497 14.7144 18.3972 14.7655L17.4859 12.9852C17.257 13.1024 17.0649 13.2807 16.9311 13.5003L18.639 14.541ZM18.3972 14.7655C18.2973 14.8166 18.1853 14.839 18.0736 14.8304L18.2283 12.8364C17.9719 12.8165 17.7149 12.868 17.4859 12.9852L18.3972 14.7655ZM18.0736 14.8304C17.9618 14.8217 17.8546 14.7822 17.7638 14.7164L18.9388 13.0979C18.7307 12.9468 18.4848 12.8563 18.2283 12.8364L18.0736 14.8304ZM17.7633 14.7159L28.4883 22.5142L29.6644 20.8966L18.9394 13.0983L17.7633 14.7159ZM28.4989 22.5218C28.419 22.4653 28.3538 22.3904 28.3088 22.3034L30.085 21.3841C29.9829 21.1869 29.835 21.0171 29.6537 20.8889L28.4989 22.5218ZM28.3088 22.3034C28.2638 22.2165 28.2403 22.12 28.2403 22.0221H30.2403C30.2403 21.8001 30.187 21.5813 30.085 21.3841L28.3088 22.3034ZM28.2403 22.0221C28.2403 21.9242 28.2638 21.8277 28.3088 21.7408L30.085 22.6601C30.187 22.4629 30.2403 22.2441 30.2403 22.0221H28.2403ZM28.3088 21.7408C28.3538 21.6538 28.419 21.5789 28.4989 21.5224L29.6537 23.1553C29.835 23.0271 29.9829 22.8573 30.085 22.6601L28.3088 21.7408Z" fill="#052224" mask="url(#path-1-inside-1_35_61067)"/>
</svg>
